<svg width="21" height="20" viewBox="0 0 21 20" fill="none" xmlns="http://www.w3.org/2000/svg">
<path d="M18.7069 0H4.70691C4.17648 0 3.66777 0.210714 3.2927 0.585786C2.91762 0.960859 2.70691 1.46957 2.70691 2V13H1.70691C1.44169 13 1.18734 13.1054 0.999802 13.2929C0.812266 13.4804 0.706909 13.7348 0.706909 14V16.5C0.706909 17.4283 1.07566 18.3185 1.73204 18.9749C2.38841 19.6313 3.27865 20 4.20691 20H17.2069C18.1352 20 19.0254 19.6313 19.6818 18.9749C20.3382 18.3185 20.7069 17.4283 20.7069 16.5V2C20.7069 1.46957 20.4962 0.960859 20.1211 0.585786C19.746 0.210714 19.2373 0 18.7069 0ZM8.99691 7.29C9.08987 7.19627 9.20047 7.12188 9.32233 7.07111C9.44419 7.02034 9.5749 6.9942 9.70691 6.9942C9.83892 6.9942 9.96963 7.02034 10.0915 7.07111C10.2133 7.12188 10.3239 7.19627 10.4169 7.29L10.7069 7.59V5C10.7069 4.73478 10.8123 4.48043 10.9998 4.29289C11.1873 4.10536 11.4417 4 11.7069 4C11.9721 4 12.2265 4.10536 12.414 4.29289C12.6016 4.48043 12.7069 4.73478 12.7069 5V7.59L12.9969 7.29C13.1852 7.1017 13.4406 6.99591 13.7069 6.99591C13.9732 6.99591 14.2286 7.1017 14.4169 7.29C14.6052 7.4783 14.711 7.7337 14.711 8C14.711 8.2663 14.6052 8.5217 14.4169 8.71L12.4169 10.71C12.3197 10.7983 12.2081 10.8694 12.0869 10.92C11.9672 10.9729 11.8378 11.0002 11.7069 11.0002C11.576 11.0002 11.4466 10.9729 11.3269 10.92C11.2057 10.8694 11.0941 10.7983 10.9969 10.71L8.99691 8.71C8.90318 8.61704 8.82879 8.50644 8.77802 8.38458C8.72725 8.26272 8.70111 8.13201 8.70111 8C8.70111 7.86799 8.72725 7.73728 8.77802 7.61542C8.82879 7.49356 8.90318 7.38296 8.99691 7.29ZM4.20691 18C3.80908 18 3.42755 17.842 3.14625 17.5607C2.86494 17.2794 2.70691 16.8978 2.70691 16.5V15H13.7069V16.5C13.7082 16.7521 13.735 17.0033 13.7869 17.25L13.8569 17.47C13.8569 17.63 13.9569 17.79 14.0169 17.93V18H4.20691Z" fill="white"/>
</svg>
