<svg width="23" height="23" viewBox="0 0 23 23" fill="none" xmlns="http://www.w3.org/2000/svg">
<g clip-path="url(#clip0_5_42)">
<path d="M20.8754 15.6347C20.8736 16.9113 20.3658 18.1351 19.4631 19.0378C18.5604 19.9405 17.3365 20.4484 16.0599 20.4501H7.80347C6.52687 20.4484 5.30304 19.9405 4.40035 19.0378C3.49765 18.1351 2.98977 16.9113 2.98806 15.6347V7.37824C2.98977 6.10163 3.49765 4.87781 4.40035 3.97512C5.30304 3.07242 6.52687 2.56454 7.80347 2.56282H16.0599C17.3365 2.56454 18.5604 3.07242 19.4631 3.97512C20.3658 4.87781 20.8736 6.10163 20.8754 7.37824V15.6347ZM16.0496 0.5H7.80217C6.89914 0.49983 6.00492 0.677549 5.17058 1.02301C4.33624 1.36846 3.57812 1.87489 2.93952 2.51337C2.30092 3.15185 1.79435 3.90988 1.44873 4.74415C1.10312 5.57843 0.925232 6.47262 0.925232 7.37565L0.925232 15.6256C0.925575 17.449 1.65012 19.1975 2.93952 20.4866C4.22892 21.7758 5.97757 22.5 7.80088 22.5H16.0509C17.8742 22.4997 19.6227 21.7751 20.9119 20.4857C22.201 19.1963 22.9252 17.4477 22.9252 15.6244V7.37694C22.9254 6.47391 22.7477 5.57969 22.4022 4.74535C22.0568 3.91101 21.5503 3.15289 20.9119 2.51429C20.2734 1.87569 19.5154 1.36912 18.6811 1.0235C17.8468 0.677887 16.9526 0.5 16.0496 0.5Z" fill="url(#paint0_linear_5_42)"/>
<path d="M11.9188 15.1274C10.9555 15.126 10.0322 14.7427 9.3512 14.0615C8.67022 13.3802 8.28721 12.4567 8.28619 11.4935C8.28721 10.5304 8.67026 9.60704 9.35128 8.92602C10.0323 8.245 10.9557 7.86195 11.9188 7.86092C12.8821 7.86161 13.8058 8.2445 14.4871 8.92556C15.1684 9.60662 15.5516 10.5302 15.5527 11.4935C15.5516 12.457 15.1684 13.3807 14.4872 14.0619C13.8059 14.7432 12.8822 15.1264 11.9188 15.1274ZM11.9252 5.67645C10.3807 5.67645 8.89951 6.29 7.80739 7.38212C6.71526 8.47425 6.10172 9.95549 6.10172 11.5C6.10172 13.0445 6.71526 14.5257 7.80739 15.6178C8.89951 16.71 10.3807 17.3235 11.9252 17.3235C13.4697 17.3235 14.951 16.71 16.0431 15.6178C17.1352 14.5257 17.7488 13.0445 17.7488 11.5C17.7488 9.95549 17.1352 8.47425 16.0431 7.38212C14.951 6.29 13.4697 5.67645 11.9252 5.67645Z" fill="url(#paint1_linear_5_42)"/>
<path d="M17.1017 6.97057C17.2733 6.97057 17.4379 6.9024 17.5593 6.78105C17.6806 6.6597 17.7488 6.49512 17.7488 6.32351C17.7488 6.1519 17.6806 5.98732 17.5593 5.86597C17.4379 5.74462 17.2733 5.67645 17.1017 5.67645C16.9301 5.67645 16.7655 5.74462 16.6442 5.86597C16.5228 5.98732 16.4547 6.1519 16.4547 6.32351C16.4547 6.49512 16.5228 6.6597 16.6442 6.78105C16.7655 6.9024 16.9301 6.97057 17.1017 6.97057Z" fill="#C7352E"/>
</g>
<defs>
<linearGradient id="paint0_linear_5_42" x1="11.9252" y1="0.5" x2="14.8158" y2="22.5" gradientUnits="userSpaceOnUse">
<stop offset="0.682619" stop-color="#C7352E"/>
<stop offset="0.682719"/>
</linearGradient>
<linearGradient id="paint1_linear_5_42" x1="11.9252" y1="5.67645" x2="13.4079" y2="16.8267" gradientUnits="userSpaceOnUse">
<stop offset="0.682619" stop-color="#C7352E"/>
<stop offset="0.682719"/>
</linearGradient>
<clipPath id="clip0_5_42">
<rect width="22" height="22" fill="white" transform="translate(0.925232 0.5)"/>
</clipPath>
</defs>
</svg>
