<svg width="84" height="59" viewBox="0 0 84 59" fill="none" xmlns="http://www.w3.org/2000/svg">
<mask id="path-1-inside-1_9_153" fill="white">
<rect x="0.5" width="83.4971" height="59" rx="6"/>
</mask>
<rect x="0.5" width="83.4971" height="59" rx="6" fill="#A5342F" stroke="#A5342F" stroke-width="20" mask="url(#path-1-inside-1_9_153)"/>
<path d="M72.1807 15.655H75.8277V23.1777C75.8277 24.9733 75.1464 26.3726 73.7838 27.3756C72.4211 28.3787 70.4173 28.8802 67.7721 28.8802C65.127 28.8802 63.1165 28.3787 61.7405 27.3756C60.3645 26.3726 59.6765 24.9733 59.6765 23.1777V15.655H63.3235V22.8434C63.3235 23.8836 63.6842 24.6885 64.4056 25.2581C65.1404 25.8277 66.2625 26.1125 67.7721 26.1125C70.7112 26.1125 72.1807 25.0228 72.1807 22.8434V15.655Z" fill="white"/>
<path d="M54.4462 28.6573L50.3115 23.8836H47.6572V28.6573H44.5605V15.655H47.6572H52.8978C54.293 15.655 55.4387 16.0079 56.3348 16.7137C57.231 17.4196 57.679 18.4721 57.679 19.8714C57.679 21.1097 57.3387 22.0509 56.6581 22.6948C55.9775 23.3263 55.0417 23.704 53.8506 23.8278L58.3766 28.6573H54.4462ZM47.6572 18.3483V21.3388H52.7447C53.3118 21.3388 53.7599 21.215 54.0889 20.9673C54.4178 20.7073 54.5823 20.342 54.5823 19.8714C54.5823 19.3885 54.4121 19.017 54.0718 18.7569C53.7429 18.4845 53.3005 18.3483 52.7447 18.3483H47.6572Z" fill="white"/>
<path d="M28.3048 28.6573V15.655H42.1644V18.2926H31.9342V20.8002H39.9708V23.2892H31.9342V26.0197H42.5632V28.6573H28.3048Z" fill="white"/>
<path d="M22.1446 22.0261C25.1431 22.249 26.6423 23.283 26.6423 25.1281C26.6423 26.2302 26.1127 27.097 25.0536 27.7285C23.9946 28.3477 22.4335 28.6573 20.3704 28.6573H10.3848V15.655H20.391C22.124 15.655 23.4994 15.9769 24.5172 16.6209C25.535 17.2524 26.0439 18.0821 26.0439 19.1099C26.0439 19.9519 25.6932 20.6144 24.9918 21.0974C24.2903 21.5803 23.3413 21.8899 22.1446 22.0261ZM14.1397 18.2554V20.8559H20.2053C20.838 20.8559 21.34 20.7444 21.7114 20.5215C22.0965 20.2863 22.2891 19.9643 22.2891 19.5557C22.2891 19.147 22.1034 18.8312 21.732 18.6084C21.3607 18.3731 20.8518 18.2554 20.2053 18.2554H14.1397ZM19.999 26.0568C20.9893 26.0568 21.7183 25.9577 22.1859 25.7596C22.6535 25.5491 22.8874 25.1962 22.8874 24.7009C22.8874 24.1932 22.6604 23.8402 22.2065 23.6421C21.7526 23.4316 21.0856 23.3263 20.2053 23.3263H14.1397V26.0568H19.999Z" fill="white"/>
<path d="M61.817 44.4819C60.39 43.3379 59.6765 41.7753 59.6765 39.794C59.6765 37.8127 60.39 36.25 61.817 35.106C63.244 33.9621 65.2253 33.6024 67.7609 33.6024C70.2966 33.6024 72.272 33.9621 73.6872 35.106C75.1142 36.25 75.8277 37.8127 75.8277 39.794C75.8277 41.7753 75.1142 43.3379 73.6872 44.4819C72.272 45.6259 70.2966 45.9856 67.7609 45.9856C65.2253 45.9856 63.244 45.6259 61.817 44.4819ZM64.1698 37.052C63.3207 37.7478 62.8961 38.6618 62.8961 39.794C62.8961 40.9262 63.3207 41.8402 64.1698 42.536C65.0189 43.2318 66.216 43.398 67.7609 43.398C69.2941 43.398 70.4853 43.2318 71.3344 42.536C72.1835 41.8402 72.6081 40.9262 72.6081 39.794C72.6081 38.6618 72.1835 37.7478 71.3344 37.052C70.4853 36.3561 69.2941 36.1899 67.7609 36.1899C66.216 36.1899 65.0189 36.3561 64.1698 37.052Z" fill="white"/>
<path d="M39.3436 33.6024H42.5632V40.7669C42.5632 42.477 41.9617 43.8097 40.7588 44.765C39.5559 45.7202 37.5745 45.9856 35.2394 45.9856C32.9043 45.9856 31.3416 45.7202 30.1269 44.765C28.9122 43.8097 28.3048 42.477 28.3048 40.7669V33.6024H31.5244V40.4485C31.5244 41.4392 31.8429 42.2058 32.4797 42.7483C33.1284 43.2908 34.119 43.562 35.4517 43.562C38.0463 43.562 39.3436 42.5242 39.3436 40.4485V33.6024Z" fill="white"/>
<path d="M23.3519 45.9856L22.202 43.4028H14.719L13.5691 45.9856H10.3848L16.0457 33.6024H20.9813L26.6423 45.9856H23.3519ZM15.7981 40.9792H21.1406L18.4693 34.9645L15.7981 40.9792Z" fill="white"/>
<path d="M44.5605 36.2382V33.6024H58.3766V36.2382H53.0872V45.9856H49.8676V36.2382H44.5605Z" fill="white"/>
<rect x="10.3848" y="9.03656" width="65.443" height="1.42267" fill="white"/>
<rect x="10.3848" y="49.9061" width="65.443" height="1.42267" fill="white"/>
</svg>
