<svg width="15" height="20" viewBox="0 0 15 20" fill="none" xmlns="http://www.w3.org/2000/svg">
<path d="M7.60346 20C7.60346 20 0.706909 12.2222 0.706909 6.66667C0.706909 4.89856 1.43351 3.20286 2.72686 1.95262C4.02022 0.702379 5.77438 0 7.60346 0C9.43254 0 11.1867 0.702379 12.4801 1.95262C13.7734 3.20286 14.5 4.89856 14.5 6.66667C14.5 12.2222 7.60346 20 7.60346 20ZM7.60346 4.44444C7.14879 4.44444 6.70433 4.57478 6.32629 4.81896C5.94824 5.06314 5.65359 5.4102 5.4796 5.81626C5.3056 6.22232 5.26008 6.66913 5.34878 7.1002C5.43748 7.53127 5.65643 7.92723 5.97793 8.23802C6.29943 8.5488 6.70904 8.76045 7.15498 8.84619C7.60091 8.93194 8.06313 8.88793 8.48319 8.71973C8.90325 8.55154 9.26228 8.26671 9.51488 7.90127C9.76748 7.53582 9.90231 7.10618 9.90231 6.66667C9.90231 6.0773 9.66011 5.51207 9.22899 5.09532C8.79787 4.67857 8.21315 4.44444 7.60346 4.44444Z" fill="white"/>
</svg>
