<svg width="30" height="17" viewBox="0 0 30 17" fill="none" xmlns="http://www.w3.org/2000/svg">
<path d="M29.7718 15.3018C29.7367 15.2246 29.7041 15.1606 29.6737 15.1093C29.1717 14.1852 28.2124 13.0509 26.7963 11.7061L26.7663 11.6753L26.7513 11.6602L26.7362 11.6447H26.721C26.0783 11.0185 25.6713 10.5975 25.5009 10.3819C25.189 9.97126 25.1191 9.55562 25.2896 9.13448C25.41 8.81628 25.8623 8.14428 26.6455 7.1176C27.0574 6.5735 27.3837 6.13741 27.6246 5.80883C29.3623 3.4477 30.1157 1.93892 29.8846 1.28187L29.7948 1.12834C29.7344 1.03589 29.5788 0.951366 29.328 0.874215C29.0766 0.797271 28.7553 0.784508 28.3635 0.835821L24.0248 0.866433C23.9545 0.84101 23.8542 0.843396 23.7234 0.874215C23.5928 0.905086 23.5275 0.920547 23.5275 0.920547L23.452 0.959097L23.3921 1.00543C23.3418 1.03609 23.2866 1.08995 23.2263 1.16694C23.1663 1.24373 23.1161 1.33375 23.0759 1.43643C22.6036 2.67847 22.0665 3.83336 21.4637 4.90087C21.0921 5.53743 20.7508 6.08906 20.4391 6.55617C20.1279 7.02312 19.8667 7.36716 19.656 7.58767C19.4449 7.80844 19.2544 7.98526 19.0833 8.11886C18.9125 8.25251 18.7822 8.30896 18.6919 8.28831C18.6013 8.26766 18.5162 8.24717 18.4355 8.22667C18.2949 8.13421 18.1819 8.0085 18.0967 7.84942C18.0111 7.6903 17.9535 7.49008 17.9233 7.24882C17.8934 7.0074 17.8757 6.79976 17.8706 6.62523C17.8659 6.45084 17.8681 6.20424 17.8783 5.88604C17.8887 5.56768 17.8934 5.35226 17.8934 5.23936C17.8934 4.84919 17.9008 4.42577 17.9158 3.96898C17.931 3.5122 17.9432 3.15025 17.9536 2.88362C17.9638 2.61668 17.9685 2.33433 17.9685 2.03662C17.9685 1.73891 17.9508 1.50543 17.9158 1.33598C17.8812 1.16674 17.828 1.00247 17.758 0.843188C17.6876 0.684113 17.5845 0.561044 17.4492 0.473672C17.3136 0.386404 17.145 0.317138 16.9445 0.265721C16.4121 0.142601 15.7342 0.0759826 14.9105 0.0656059C13.0425 0.0451118 11.8422 0.168439 11.3099 0.43533C11.099 0.548073 10.9081 0.702169 10.7375 0.897096C10.5566 1.123 10.5314 1.24627 10.6619 1.26656C11.2646 1.35886 11.6913 1.57958 11.9424 1.9286L12.033 2.11351C12.1033 2.24696 12.1736 2.48318 12.2439 2.82183C12.3142 3.16053 12.3595 3.53518 12.3795 3.94563C12.4296 4.6951 12.4296 5.33669 12.3795 5.87037C12.3292 6.4043 12.2817 6.81995 12.2364 7.11765C12.191 7.41536 12.1233 7.65657 12.033 7.84133C11.9424 8.02609 11.8822 8.13899 11.852 8.17998C11.8219 8.22096 11.7968 8.2468 11.7769 8.25697C11.6463 8.30808 11.5105 8.33412 11.37 8.33412C11.2293 8.33412 11.0587 8.26221 10.8578 8.11839C10.657 7.97462 10.4487 7.77715 10.2327 7.52562C10.0167 7.27398 9.77311 6.92242 9.50183 6.47082C9.23081 6.01917 8.94953 5.48544 8.6583 4.86953L8.41727 4.42286C8.26666 4.13553 8.06086 3.71714 7.79968 3.16805C7.5384 2.61876 7.30743 2.08741 7.10666 1.57413C7.0264 1.3586 6.90584 1.19444 6.74517 1.08154L6.66974 1.03521C6.61963 0.994222 6.53917 0.950692 6.42876 0.904308C6.3182 0.857976 6.20287 0.82477 6.08225 0.804327L1.95433 0.834939C1.53251 0.834939 1.2463 0.932636 1.0956 1.12772L1.03529 1.21997C1.00516 1.27139 0.98996 1.35347 0.98996 1.46647C0.98996 1.57937 1.02009 1.718 1.0804 1.88211C1.683 3.32962 2.33831 4.72566 3.04634 6.07038C3.75437 7.4151 4.36963 8.49828 4.89176 9.31903C5.414 10.1404 5.94631 10.9155 6.48871 11.6442C7.03107 12.373 7.39012 12.8401 7.56576 13.0453C7.74166 13.2509 7.87979 13.4046 7.9802 13.5073L8.35691 13.8767C8.59794 14.1232 8.95191 14.4183 9.41894 14.7621C9.88611 15.1061 10.4033 15.4448 10.9707 15.7787C11.5383 16.112 12.1985 16.3841 12.9519 16.5944C13.7052 16.805 14.4383 16.8896 15.1515 16.8488H16.884C17.2354 16.8178 17.5016 16.7049 17.6825 16.5099L17.7425 16.4328C17.7828 16.3715 17.8205 16.2763 17.8553 16.1482C17.8906 16.0199 17.9081 15.8785 17.9081 15.7248C17.8978 15.2835 17.9307 14.8858 18.0058 14.5316C18.0809 14.1776 18.1665 13.9107 18.2622 13.731C18.3579 13.5514 18.4659 13.3998 18.586 13.2769C18.7064 13.1538 18.7922 13.0793 18.8426 13.0536C18.8926 13.0277 18.9325 13.0102 18.9627 12.9997C19.2037 12.9176 19.4874 12.9971 19.8141 13.2385C20.1406 13.4798 20.4468 13.7777 20.7332 14.1317C21.0195 14.486 21.3634 14.8835 21.7651 15.3248C22.167 15.7663 22.5184 16.0945 22.8196 16.3104L23.1208 16.4952C23.3219 16.6185 23.5831 16.7314 23.9046 16.834C24.2254 16.9366 24.5066 16.9622 24.748 16.911L28.6046 16.8495C28.986 16.8495 29.2829 16.785 29.4934 16.6569C29.7043 16.5285 29.8297 16.3872 29.8701 16.2334C29.9104 16.0795 29.9126 15.9049 29.8778 15.7097C29.842 15.5149 29.8068 15.3788 29.7718 15.3018Z" fill="url(#paint0_linear_5_40)"/>
<defs>
<linearGradient id="paint0_linear_5_40" x1="15.4576" y1="0.0634155" x2="17.6643" y2="15.8037" gradientUnits="userSpaceOnUse">
<stop offset="0.693036" stop-color="#C7352E"/>
<stop offset="0.693136"/>
</linearGradient>
</defs>
</svg>
